<?xml version="1.0" encoding="UTF-8"?>
<svg xmlns="http://www.w3.org/2000/svg" xmlns:xlink="http://www.w3.org/1999/xlink" width="170.477pt" height="113.784pt" viewBox="0 0 170.477 113.784" version="1.1">
<defs>
<clipPath id="clip1">
  <path d="M 0 0 L 170.476562 0 L 170.476562 113.785156 L 0 113.785156 Z M 0 0 "/>
</clipPath>
<clipPath id="clip2">
  <path d="M 85 0 L 86 0 L 86 113.785156 L 85 113.785156 Z M 85 0 "/>
</clipPath>
<clipPath id="clip3">
  <path d="M 0 56 L 170.476562 56 L 170.476562 58 L 0 58 Z M 0 56 "/>
</clipPath>
<clipPath id="clip4">
  <path d="M 85 56 L 170.476562 56 L 170.476562 113.785156 L 85 113.785156 Z M 85 56 "/>
</clipPath>
<clipPath id="clip5">
  <path d="M 127 56 L 128 56 L 128 113.785156 L 127 113.785156 Z M 127 56 "/>
</clipPath>
<clipPath id="clip6">
  <path d="M 85 85 L 170.476562 85 L 170.476562 86 L 85 86 Z M 85 85 "/>
</clipPath>
<clipPath id="clip7">
  <path d="M 85 0 L 170.476562 0 L 170.476562 57 L 85 57 Z M 85 0 "/>
</clipPath>
<clipPath id="clip8">
  <path d="M 85 0 L 170.476562 0 L 170.476562 58 L 85 58 Z M 85 0 "/>
</clipPath>
<clipPath id="clip9">
  <path d="M 85 28 L 170.476562 28 L 170.476562 29 L 85 29 Z M 85 28 "/>
</clipPath>
</defs>
<g id="surface1">
<g clip-path="url(#clip1)" clip-rule="nonzero">
<path style="fill-rule:nonzero;fill:rgb(25.097656%,38.822937%,84.70459%);fill-opacity:1;stroke-width:0.3985;stroke-linecap:butt;stroke-linejoin:miter;stroke:rgb(0%,0%,0%);stroke-opacity:1;stroke-miterlimit:10;" d="M 0.00021875 -0.0009375 L 0.00021875 113.385781 L 170.08225 113.385781 L 170.08225 -0.0009375 Z M 0.00021875 -0.0009375 " transform="matrix(1,0,0,-1,0.199,113.585)"/>
</g>
<g clip-path="url(#clip2)" clip-rule="nonzero">
<path style="fill:none;stroke-width:0.3985;stroke-linecap:butt;stroke-linejoin:miter;stroke:rgb(0%,0%,0%);stroke-opacity:1;stroke-miterlimit:10;" d="M 85.039281 -0.0009375 L 85.039281 113.385781 " transform="matrix(1,0,0,-1,0.199,113.585)"/>
</g>
<g clip-path="url(#clip3)" clip-rule="nonzero">
<path style="fill:none;stroke-width:0.3985;stroke-linecap:butt;stroke-linejoin:miter;stroke:rgb(0%,0%,0%);stroke-opacity:1;stroke-miterlimit:10;" d="M 0.00021875 56.694375 L 170.08225 56.694375 " transform="matrix(1,0,0,-1,0.199,113.585)"/>
</g>
<g clip-path="url(#clip4)" clip-rule="nonzero">
<path style="fill-rule:nonzero;fill:rgb(21.961975%,59.606934%,14.901733%);fill-opacity:1;stroke-width:0.3985;stroke-linecap:butt;stroke-linejoin:miter;stroke:rgb(0%,0%,0%);stroke-opacity:1;stroke-miterlimit:10;" d="M 85.039281 -0.0009375 L 85.039281 56.694375 L 170.08225 56.694375 L 170.08225 -0.0009375 Z M 85.039281 -0.0009375 " transform="matrix(1,0,0,-1,0.199,113.585)"/>
</g>
<g clip-path="url(#clip5)" clip-rule="nonzero">
<path style="fill:none;stroke-width:0.3985;stroke-linecap:butt;stroke-linejoin:miter;stroke:rgb(0%,0%,0%);stroke-opacity:1;stroke-miterlimit:10;" d="M 127.558813 -0.0009375 L 127.558813 56.694375 " transform="matrix(1,0,0,-1,0.199,113.585)"/>
</g>
<g clip-path="url(#clip6)" clip-rule="nonzero">
<path style="fill:none;stroke-width:0.3985;stroke-linecap:butt;stroke-linejoin:miter;stroke:rgb(0%,0%,0%);stroke-opacity:1;stroke-miterlimit:10;" d="M 85.039281 28.346719 L 170.08225 28.346719 " transform="matrix(1,0,0,-1,0.199,113.585)"/>
</g>
<g clip-path="url(#clip7)" clip-rule="nonzero">
<path style=" stroke:none;fill-rule:nonzero;fill:rgb(58.428955%,34.510803%,69.802856%);fill-opacity:1;" d="M 85.238281 56.890625 L 85.238281 0.199219 L 170.28125 0.199219 L 170.28125 56.890625 Z M 85.238281 56.890625 "/>
</g>
<g clip-path="url(#clip8)" clip-rule="nonzero">
<path style="fill:none;stroke-width:0.3985;stroke-linecap:butt;stroke-linejoin:miter;stroke:rgb(0%,0%,0%);stroke-opacity:1;stroke-miterlimit:10;" d="M 85.039281 56.694375 L 85.039281 113.385781 L 170.08225 113.385781 L 170.08225 56.694375 Z M 85.039281 56.694375 " transform="matrix(1,0,0,-1,0.199,113.585)"/>
</g>
<path style="fill:none;stroke-width:0.3985;stroke-linecap:butt;stroke-linejoin:miter;stroke:rgb(0%,0%,0%);stroke-opacity:1;stroke-miterlimit:10;" d="M 127.558813 56.694375 L 127.558813 113.385781 " transform="matrix(1,0,0,-1,0.199,113.585)"/>
<g clip-path="url(#clip9)" clip-rule="nonzero">
<path style="fill:none;stroke-width:0.3985;stroke-linecap:butt;stroke-linejoin:miter;stroke:rgb(0%,0%,0%);stroke-opacity:1;stroke-miterlimit:10;" d="M 85.039281 85.042031 L 170.08225 85.042031 " transform="matrix(1,0,0,-1,0.199,113.585)"/>
</g>
<path style="fill-rule:nonzero;fill:rgb(79.606628%,23.527527%,19.999695%);fill-opacity:1;stroke-width:0.3985;stroke-linecap:butt;stroke-linejoin:miter;stroke:rgb(0%,0%,0%);stroke-opacity:1;stroke-miterlimit:10;" d="M 85.039281 56.694375 L 85.039281 85.042031 L 127.558813 85.042031 L 127.558813 56.694375 Z M 85.039281 56.694375 " transform="matrix(1,0,0,-1,0.199,113.585)"/>
<path style="fill:none;stroke-width:0.3985;stroke-linecap:butt;stroke-linejoin:miter;stroke:rgb(0%,0%,0%);stroke-opacity:1;stroke-miterlimit:10;" d="M 106.301 56.694375 L 106.301 85.042031 " transform="matrix(1,0,0,-1,0.199,113.585)"/>
<path style="fill:none;stroke-width:0.3985;stroke-linecap:butt;stroke-linejoin:miter;stroke:rgb(0%,0%,0%);stroke-opacity:1;stroke-miterlimit:10;" d="M 85.039281 70.86625 L 127.558813 70.86625 " transform="matrix(1,0,0,-1,0.199,113.585)"/>
</g>
</svg>
